<svg xmlns="http://www.w3.org/2000/svg" xmlns:xlink="http://www.w3.org/1999/xlink" width="360pt" height="223pt" viewBox="0.00 0.00 360.00 222.93">
<g id="graph0" class="graph" transform="scale(0.359568 0.359568) rotate(0) translate(4 616)">
<title>G</title>
<!-- BMI -->
<g id="node1" class="node">
<title>BMI</title>
<g id="a_node1"><a xlink:title="(1) BMI">
<ellipse fill="#404040" stroke="#4a4a4a" cx="321" cy="-234" rx="28.83" ry="18"/>
<text text-anchor="middle" x="321" y="-228.95" font-family="Times,serif" font-size="14.00" fill="white">BMI</text>
</a>
</g>
</g>
<!-- AlcoholDrinking -->
<g id="node2" class="node">
<title>AlcoholDrinking</title>
<g id="a_node2"><a xlink:title="(3) AlcoholDrinking">
<ellipse fill="#404040" stroke="#4a4a4a" cx="178" cy="-306" rx="73.87" ry="18"/>
<text text-anchor="middle" x="178" y="-300.95" font-family="Times,serif" font-size="14.00" fill="white">AlcoholDrinking</text>
</a>
</g>
</g>
<!-- SkinCancer -->
<g id="node3" class="node">
<title>SkinCancer</title>
<g id="a_node3"><a xlink:title="(17) SkinCancer">
<ellipse fill="#404040" stroke="#4a4a4a" cx="551" cy="-450" rx="53.91" ry="18"/>
<text text-anchor="middle" x="551" y="-444.95" font-family="Times,serif" font-size="14.00" fill="white">SkinCancer</text>
</a>
</g>
</g>
<!-- ComorbidityCount -->
<g id="node15" class="node">
<title>ComorbidityCount</title>
<g id="a_node15"><a xlink:title="(18) ComorbidityCount">
<ellipse fill="#404040" stroke="#4a4a4a" cx="578" cy="-378" rx="81.04" ry="18"/>
<text text-anchor="middle" x="578" y="-372.95" font-family="Times,serif" font-size="14.00" fill="white">ComorbidityCount</text>
</a>
</g>
</g>
<!-- SkinCancer&#45;&gt;ComorbidityCount -->
<g id="edge9" class="edge">
<title>SkinCancer-&gt;ComorbidityCount</title>
<g id="a_edge9"><a xlink:title="17 → 18">
<path fill="none" stroke="#4a4a4a" d="M557.67,-431.7C560.58,-424.15 564.07,-415.12 567.32,-406.68"/>
<polygon fill="#4a4a4a" stroke="#4a4a4a" points="570.52,-408.11 570.86,-397.52 563.99,-405.59 570.52,-408.11"/>
</a>
</g>
</g>
<!-- Race -->
<g id="node4" class="node">
<title>Race</title>
<g id="a_node4"><a xlink:title="(10) Race">
<ellipse fill="#404040" stroke="#4a4a4a" cx="342" cy="-450" rx="29.34" ry="18"/>
<text text-anchor="middle" x="342" y="-444.95" font-family="Times,serif" font-size="14.00" fill="white">Race</text>
</a>
</g>
</g>
<!-- SleepTime -->
<g id="node5" class="node">
<title>SleepTime</title>
<g id="a_node5"><a xlink:title="(14) SleepTime">
<ellipse fill="#404040" stroke="#4a4a4a" cx="771" cy="-90" rx="51.35" ry="18"/>
<text text-anchor="middle" x="771" y="-84.95" font-family="Times,serif" font-size="14.00" fill="white">SleepTime</text>
</a>
</g>
</g>
<!-- SleepCategory -->
<g id="node7" class="node">
<title>SleepCategory</title>
<g id="a_node7"><a xlink:title="(21) SleepCategory">
<ellipse fill="#404040" stroke="#4a4a4a" cx="881" cy="-18" rx="65.17" ry="18"/>
<text text-anchor="middle" x="881" y="-12.95" font-family="Times,serif" font-size="14.00" fill="white">SleepCategory</text>
</a>
</g>
</g>
<!-- SleepTime&#45;&gt;SleepCategory -->
<g id="edge18" class="edge">
<title>SleepTime-&gt;SleepCategory</title>
<g id="a_edge18"><a xlink:title="14 → 21">
<path fill="none" stroke="#4a4a4a" d="M795.14,-73.64C810.15,-64.08 829.7,-51.64 846.36,-41.05"/>
<polygon fill="#4a4a4a" stroke="#4a4a4a" points="847.94,-44.19 854.49,-35.87 844.18,-38.28 847.94,-44.19"/>
</a>
</g>
</g>
<!-- HeartDisease -->
<g id="node6" class="node">
<title>HeartDisease</title>
<g id="a_node6"><a xlink:title="(0) HeartDisease">
<ellipse fill="#404040" stroke="#4a4a4a" cx="514" cy="-594" rx="60.05" ry="18"/>
<text text-anchor="middle" x="514" y="-588.95" font-family="Times,serif" font-size="14.00" fill="white">HeartDisease</text>
</a>
</g>
</g>
<!-- HeartDisease&#45;&gt;BMI -->
<g id="edge19" class="edge">
<title>HeartDisease-&gt;BMI</title>
<g id="a_edge19"><a xlink:title="0 → 1">
<path fill="none" stroke="#4a4a4a" d="M454.35,-590.87C360.35,-586.51 183.1,-573.94 131,-540 92.04,-514.62 76,-497.5 76,-451 76,-451 76,-451 76,-377 76,-336.55 66.1,-316.3 95,-288 155.79,-228.48 201.85,-277.54 283,-252 284.8,-251.43 286.63,-250.8 288.46,-250.13"/>
<polygon fill="#4a4a4a" stroke="#4a4a4a" points="289.46,-253.5 297.43,-246.52 286.84,-247.01 289.46,-253.5"/>
</a>
</g>
</g>
<!-- HeartDisease&#45;&gt;AlcoholDrinking -->
<g id="edge32" class="edge">
<title>HeartDisease-&gt;AlcoholDrinking</title>
<g id="a_edge32"><a xlink:title="0 → 3">
<path fill="none" stroke="#4a4a4a" d="M453.95,-591.83C365.39,-588.83 205.81,-578.12 165,-540 105.63,-484.53 104.99,-436.27 133,-360 136.79,-349.68 143.58,-340 150.75,-331.8"/>
<polygon fill="#4a4a4a" stroke="#4a4a4a" points="153.2,-334.31 157.52,-324.64 148.11,-329.5 153.2,-334.31"/>
</a>
</g>
</g>
<!-- HeartDisease&#45;&gt;SkinCancer -->
<g id="edge11" class="edge">
<title>HeartDisease-&gt;SkinCancer</title>
<g id="a_edge11"><a xlink:title="0 → 17">
<path fill="none" stroke="#4a4a4a" d="M518.56,-575.82C521.31,-565.45 524.87,-551.97 528,-540 533.28,-519.8 539.17,-497.01 543.67,-479.54"/>
<polygon fill="#4a4a4a" stroke="#4a4a4a" points="547.05,-480.42 546.15,-469.87 540.27,-478.68 547.05,-480.42"/>
</a>
</g>
</g>
<!-- HeartDisease&#45;&gt;Race -->
<g id="edge24" class="edge">
<title>HeartDisease-&gt;Race</title>
<g id="a_edge24"><a xlink:title="0 → 10">
<path fill="none" stroke="#4a4a4a" d="M466.74,-582.53C440.07,-574.6 407.65,-561.33 385,-540 367.43,-523.46 356.19,-498.24 349.62,-478.86"/>
<polygon fill="#4a4a4a" stroke="#4a4a4a" points="352.99,-477.9 346.66,-469.41 346.31,-480 352.99,-477.9"/>
</a>
</g>
</g>
<!-- HeartDisease&#45;&gt;SleepTime -->
<g id="edge7" class="edge">
<title>HeartDisease-&gt;SleepTime</title>
<g id="a_edge7"><a xlink:title="0 → 14">
<path fill="none" stroke="#4a4a4a" d="M453.7,-593.15C342.31,-592.31 109.75,-585.03 45,-540 8.61,-514.7 0,-495.32 0,-451 0,-451 0,-451 0,-233 0,-160.96 527.3,-110.96 709.75,-95.81"/>
<polygon fill="#4a4a4a" stroke="#4a4a4a" points="709.82,-99.32 719.5,-95.01 709.24,-92.34 709.82,-99.32"/>
</a>
</g>
</g>
<!-- HeartDisease&#45;&gt;SleepCategory -->
<g id="edge37" class="edge">
<title>HeartDisease-&gt;SleepCategory</title>
<g id="a_edge37"><a xlink:title="0 → 21">
<path fill="none" stroke="#4a4a4a" d="M573.67,-591.29C674.03,-587.45 871.38,-575.5 930,-540 971.24,-515.03 992,-499.21 992,-451 992,-451 992,-451 992,-161 992,-120.55 996.8,-104.7 973,-72 962.23,-57.21 945.98,-45.92 930.12,-37.64"/>
<polygon fill="#4a4a4a" stroke="#4a4a4a" points="931.7,-34.52 921.18,-33.29 928.64,-40.81 931.7,-34.52"/>
</a>
</g>
</g>
<!-- KidneyDisease -->
<g id="node8" class="node">
<title>KidneyDisease</title>
<g id="a_node8"><a xlink:title="(16) KidneyDisease">
<ellipse fill="#404040" stroke="#4a4a4a" cx="457" cy="-306" rx="66.71" ry="18"/>
<text text-anchor="middle" x="457" y="-300.95" font-family="Times,serif" font-size="14.00" fill="white">KidneyDisease</text>
</a>
</g>
</g>
<!-- HeartDisease&#45;&gt;KidneyDisease -->
<g id="edge27" class="edge">
<title>HeartDisease-&gt;KidneyDisease</title>
<g id="a_edge27"><a xlink:title="0 → 16">
<path fill="none" stroke="#4a4a4a" d="M510.3,-575.63C505.18,-551.5 495.7,-506.47 488,-468 478.73,-421.72 468.46,-367.85 462.38,-335.63"/>
<polygon fill="#4a4a4a" stroke="#4a4a4a" points="465.84,-335.07 460.54,-325.9 458.96,-336.37 465.84,-335.07"/>
</a>
</g>
</g>
<!-- GenHealth -->
<g id="node9" class="node">
<title>GenHealth</title>
<g id="a_node9"><a xlink:title="(13) GenHealth">
<ellipse fill="#404040" stroke="#4a4a4a" cx="321" cy="-306" rx="50.84" ry="18"/>
<text text-anchor="middle" x="321" y="-300.95" font-family="Times,serif" font-size="14.00" fill="white">GenHealth</text>
</a>
</g>
</g>
<!-- HeartDisease&#45;&gt;GenHealth -->
<g id="edge28" class="edge">
<title>HeartDisease-&gt;GenHealth</title>
<g id="a_edge28"><a xlink:title="0 → 13">
<path fill="none" stroke="#4a4a4a" d="M503.25,-575.82C491.91,-557.82 473.46,-528.75 457,-504 415.8,-442.06 365.72,-370.42 339.33,-332.93"/>
<polygon fill="#4a4a4a" stroke="#4a4a4a" points="342.34,-331.13 333.71,-324.97 336.61,-335.16 342.34,-331.13"/>
</a>
</g>
</g>
<!-- Sex -->
<g id="node10" class="node">
<title>Sex</title>
<g id="a_node10"><a xlink:title="(8) Sex">
<ellipse fill="#404040" stroke="#4a4a4a" cx="421" cy="-522" rx="27" ry="18"/>
<text text-anchor="middle" x="421" y="-516.95" font-family="Times,serif" font-size="14.00" fill="white">Sex</text>
</a>
</g>
</g>
<!-- HeartDisease&#45;&gt;Sex -->
<g id="edge12" class="edge">
<title>HeartDisease-&gt;Sex</title>
<g id="a_edge12"><a xlink:title="0 → 8">
<path fill="none" stroke="#4a4a4a" d="M492.43,-576.76C478.96,-566.63 461.53,-553.51 447.26,-542.76"/>
<polygon fill="#4a4a4a" stroke="#4a4a4a" points="449.71,-540.23 439.62,-537.02 445.5,-545.83 449.71,-540.23"/>
</a>
</g>
</g>
<!-- Stroke -->
<g id="node11" class="node">
<title>Stroke</title>
<g id="a_node11"><a xlink:title="(4) Stroke">
<ellipse fill="#404040" stroke="#4a4a4a" cx="577" cy="-306" rx="34.97" ry="18"/>
<text text-anchor="middle" x="577" y="-300.95" font-family="Times,serif" font-size="14.00" fill="white">Stroke</text>
</a>
</g>
</g>
<!-- HeartDisease&#45;&gt;Stroke -->
<g id="edge23" class="edge">
<title>HeartDisease-&gt;Stroke</title>
<g id="a_edge23"><a xlink:title="0 → 4">
<path fill="none" stroke="#4a4a4a" d="M545.36,-578.29C562.3,-569.14 582.63,-556.05 597,-540 644.6,-486.84 651.8,-465.49 668,-396 671.63,-380.42 675.97,-373.87 668,-360 661.68,-349 635.48,-334.36 612.8,-323.25"/>
<polygon fill="#4a4a4a" stroke="#4a4a4a" points="614.61,-320.24 604.08,-319.07 611.59,-326.55 614.61,-320.24"/>
</a>
</g>
</g>
<!-- MentalHealth -->
<g id="node12" class="node">
<title>MentalHealth</title>
<g id="a_node12"><a xlink:title="(6) MentalHealth">
<ellipse fill="#404040" stroke="#4a4a4a" cx="902" cy="-90" rx="62.1" ry="18"/>
<text text-anchor="middle" x="902" y="-84.95" font-family="Times,serif" font-size="14.00" fill="white">MentalHealth</text>
</a>
</g>
</g>
<!-- HeartDisease&#45;&gt;MentalHealth -->
<g id="edge34" class="edge">
<title>HeartDisease-&gt;MentalHealth</title>
<g id="a_edge34"><a xlink:title="0 → 6">
<path fill="none" stroke="#4a4a4a" d="M573.23,-590.5C666.09,-585.62 840.75,-572.35 893,-540 933.77,-514.75 954,-498.95 954,-451 954,-451 954,-451 954,-233 954,-190.86 933.56,-145.75 918.31,-117.95"/>
<polygon fill="#4a4a4a" stroke="#4a4a4a" points="921.5,-116.48 913.52,-109.5 915.41,-119.93 921.5,-116.48"/>
</a>
</g>
</g>
<!-- AgeCategory -->
<g id="node13" class="node">
<title>AgeCategory</title>
<g id="a_node13"><a xlink:title="(9) AgeCategory">
<ellipse fill="#404040" stroke="#4a4a4a" cx="278" cy="-522" rx="60.05" ry="18"/>
<text text-anchor="middle" x="278" y="-516.95" font-family="Times,serif" font-size="14.00" fill="white">AgeCategory</text>
</a>
</g>
</g>
<!-- HeartDisease&#45;&gt;AgeCategory -->
<g id="edge33" class="edge">
<title>HeartDisease-&gt;AgeCategory</title>
<g id="a_edge33"><a xlink:title="0 → 9">
<path fill="none" stroke="#4a4a4a" d="M472.35,-580.65C432.87,-568.94 373.41,-551.3 330.66,-538.62"/>
<polygon fill="#4a4a4a" stroke="#4a4a4a" points="331.66,-535.27 321.08,-535.78 329.67,-541.98 331.66,-535.27"/>
</a>
</g>
</g>
<!-- PhysicalActivity -->
<g id="node14" class="node">
<title>PhysicalActivity</title>
<g id="a_node14"><a xlink:title="(12) PhysicalActivity">
<ellipse fill="#404040" stroke="#4a4a4a" cx="501" cy="-234" rx="72.34" ry="18"/>
<text text-anchor="middle" x="501" y="-228.95" font-family="Times,serif" font-size="14.00" fill="white">PhysicalActivity</text>
</a>
</g>
</g>
<!-- HeartDisease&#45;&gt;PhysicalActivity -->
<g id="edge35" class="edge">
<title>HeartDisease-&gt;PhysicalActivity</title>
<g id="a_edge35"><a xlink:title="0 → 12">
<path fill="none" stroke="#4a4a4a" d="M574.17,-592.69C668.37,-588.69 840,-565.67 840,-451 840,-451 840,-451 840,-377 840,-336.55 850.25,-315.93 821,-288 803.61,-271.4 667.04,-253.36 578.02,-243.19"/>
<polygon fill="#4a4a4a" stroke="#4a4a4a" points="578.43,-239.72 568.1,-242.07 577.65,-246.67 578.43,-239.72"/>
</a>
</g>
</g>
<!-- HeartDisease&#45;&gt;ComorbidityCount -->
<g id="edge39" class="edge">
<title>HeartDisease-&gt;ComorbidityCount</title>
<g id="a_edge39"><a xlink:title="0 → 18">
<path fill="none" stroke="#4a4a4a" d="M533.28,-576.79C557.55,-554.98 597.99,-513.63 614,-468 619.3,-452.9 618.7,-447.29 614,-432 611.04,-422.37 605.67,-412.92 599.96,-404.73"/>
<polygon fill="#4a4a4a" stroke="#4a4a4a" points="602.94,-402.87 594.14,-396.97 597.34,-407.07 602.94,-402.87"/>
</a>
</g>
</g>
<!-- RiskBehavior -->
<g id="node16" class="node">
<title>RiskBehavior</title>
<g id="a_node16"><a xlink:title="(20) RiskBehavior">
<ellipse fill="#404040" stroke="#4a4a4a" cx="204" cy="-378" rx="61.59" ry="18"/>
<text text-anchor="middle" x="204" y="-372.95" font-family="Times,serif" font-size="14.00" fill="white">RiskBehavior</text>
</a>
</g>
</g>
<!-- HeartDisease&#45;&gt;RiskBehavior -->
<g id="edge14" class="edge">
<title>HeartDisease-&gt;RiskBehavior</title>
<g id="a_edge14"><a xlink:title="0 → 20">
<path fill="none" stroke="#4a4a4a" d="M454.95,-590.14C374.28,-585.08 235.25,-571.89 197,-540 159.08,-508.38 157.43,-479.47 171,-432 173.67,-422.66 178.51,-413.37 183.68,-405.24"/>
<polygon fill="#4a4a4a" stroke="#4a4a4a" points="186.41,-407.44 189.16,-397.21 180.63,-403.49 186.41,-407.44"/>
</a>
</g>
</g>
<!-- PhysicalHealth -->
<g id="node17" class="node">
<title>PhysicalHealth</title>
<g id="a_node17"><a xlink:title="(5) PhysicalHealth">
<ellipse fill="#404040" stroke="#4a4a4a" cx="207" cy="-234" rx="66.71" ry="18"/>
<text text-anchor="middle" x="207" y="-228.95" font-family="Times,serif" font-size="14.00" fill="white">PhysicalHealth</text>
</a>
</g>
</g>
<!-- HeartDisease&#45;&gt;PhysicalHealth -->
<g id="edge4" class="edge">
<title>HeartDisease-&gt;PhysicalHealth</title>
<g id="a_edge4"><a xlink:title="0 → 5">
<path fill="none" stroke="#4a4a4a" d="M453.81,-592.22C350.4,-589.82 144.49,-579.99 86,-540 48.9,-514.64 38,-495.94 38,-451 38,-451 38,-451 38,-377 38,-334.81 41.42,-318.08 71,-288 90.12,-268.56 117.18,-256.1 142.14,-248.19"/>
<polygon fill="#4a4a4a" stroke="#4a4a4a" points="143,-251.58 151.6,-245.39 141.02,-244.87 143,-251.58"/>
</a>
</g>
</g>
<!-- Diabetic -->
<g id="node18" class="node">
<title>Diabetic</title>
<g id="a_node18"><a xlink:title="(11) Diabetic">
<ellipse fill="#404040" stroke="#4a4a4a" cx="672" cy="-306" rx="42.14" ry="18"/>
<text text-anchor="middle" x="672" y="-300.95" font-family="Times,serif" font-size="14.00" fill="white">Diabetic</text>
</a>
</g>
</g>
<!-- HeartDisease&#45;&gt;Diabetic -->
<g id="edge10" class="edge">
<title>HeartDisease-&gt;Diabetic</title>
<g id="a_edge10"><a xlink:title="0 → 11">
<path fill="none" stroke="#4a4a4a" d="M555.12,-580.44C578.03,-571.87 605.89,-558.65 626,-540 676.6,-493.09 676.02,-464.53 684,-396 685.85,-380.11 685.78,-375.9 684,-360 683.08,-351.81 681.4,-343.04 679.57,-335.04"/>
<polygon fill="#4a4a4a" stroke="#4a4a4a" points="683.01,-334.37 677.23,-325.49 676.21,-336.04 683.01,-334.37"/>
</a>
</g>
</g>
<!-- Asthma -->
<g id="node19" class="node">
<title>Asthma</title>
<g id="a_node19"><a xlink:title="(15) Asthma">
<ellipse fill="#404040" stroke="#4a4a4a" cx="772" cy="-306" rx="40.09" ry="18"/>
<text text-anchor="middle" x="772" y="-300.95" font-family="Times,serif" font-size="14.00" fill="white">Asthma</text>
</a>
</g>
</g>
<!-- HeartDisease&#45;&gt;Asthma -->
<g id="edge36" class="edge">
<title>HeartDisease-&gt;Asthma</title>
<g id="a_edge36"><a xlink:title="0 → 15">
<path fill="none" stroke="#4a4a4a" d="M564.14,-583.73C593.48,-576.15 629.63,-562.82 655,-540 718.43,-482.95 751.88,-383.62 765.11,-335.18"/>
<polygon fill="#4a4a4a" stroke="#4a4a4a" points="768.43,-336.32 767.59,-325.76 761.66,-334.54 768.43,-336.32"/>
</a>
</g>
</g>
<!-- UnhealthyDays -->
<g id="node20" class="node">
<title>UnhealthyDays</title>
<g id="a_node20"><a xlink:title="(19) UnhealthyDays">
<ellipse fill="#404040" stroke="#4a4a4a" cx="815" cy="-162" rx="68.24" ry="18"/>
<text text-anchor="middle" x="815" y="-156.95" font-family="Times,serif" font-size="14.00" fill="white">UnhealthyDays</text>
</a>
</g>
</g>
<!-- HeartDisease&#45;&gt;UnhealthyDays -->
<g id="edge29" class="edge">
<title>HeartDisease-&gt;UnhealthyDays</title>
<g id="a_edge29"><a xlink:title="0 → 19">
<path fill="none" stroke="#4a4a4a" d="M572.54,-589.64C657.78,-583.8 810.94,-569.48 857,-540 896.97,-514.42 916,-498.46 916,-451 916,-451 916,-451 916,-305 916,-255.92 875.45,-212.03 845.73,-186.45"/>
<polygon fill="#4a4a4a" stroke="#4a4a4a" points="848,-183.79 838.08,-180.08 843.53,-189.17 848,-183.79"/>
</a>
</g>
</g>
<!-- DiffWalking -->
<g id="node21" class="node">
<title>DiffWalking</title>
<g id="a_node21"><a xlink:title="(7) DiffWalking">
<ellipse fill="#404040" stroke="#4a4a4a" cx="770" cy="-234" rx="58" ry="18"/>
<text text-anchor="middle" x="770" y="-228.95" font-family="Times,serif" font-size="14.00" fill="white">DiffWalking</text>
</a>
</g>
</g>
<!-- HeartDisease&#45;&gt;DiffWalking -->
<g id="edge20" class="edge">
<title>HeartDisease-&gt;DiffWalking</title>
<g id="a_edge20"><a xlink:title="0 → 7">
<path fill="none" stroke="#4a4a4a" d="M571.83,-588.66C649.39,-581.9 781.98,-566.78 822,-540 860.84,-514.01 878,-497.73 878,-451 878,-451 878,-451 878,-377 878,-334.81 870.71,-321.45 845,-288 835.24,-275.31 821.6,-264.42 808.63,-255.87"/>
<polygon fill="#4a4a4a" stroke="#4a4a4a" points="810.53,-252.93 800.19,-250.6 806.82,-258.87 810.53,-252.93"/>
</a>
</g>
</g>
<!-- Smoking -->
<g id="node22" class="node">
<title>Smoking</title>
<g id="a_node22"><a xlink:title="(2) Smoking">
<ellipse fill="#404040" stroke="#4a4a4a" cx="225" cy="-450" rx="44.7" ry="18"/>
<text text-anchor="middle" x="225" y="-444.95" font-family="Times,serif" font-size="14.00" fill="white">Smoking</text>
</a>
</g>
</g>
<!-- HeartDisease&#45;&gt;Smoking -->
<g id="edge3" class="edge">
<title>HeartDisease-&gt;Smoking</title>
<g id="a_edge3"><a xlink:title="0 → 2">
<path fill="none" stroke="#4a4a4a" d="M454.21,-591.4C374.46,-587.87 239.71,-576.5 209,-540 194.66,-522.95 201.14,-497.45 209.76,-478.11"/>
<polygon fill="#4a4a4a" stroke="#4a4a4a" points="212.88,-479.7 214.13,-469.18 206.59,-476.62 212.88,-479.7"/>
</a>
</g>
</g>
<!-- GenHealth&#45;&gt;BMI -->
<g id="edge25" class="edge">
<title>GenHealth-&gt;BMI</title>
<g id="a_edge25"><a xlink:title="13 → 1">
<path fill="none" stroke="#4a4a4a" d="M321,-287.7C321,-280.41 321,-271.73 321,-263.54"/>
<polygon fill="#4a4a4a" stroke="#4a4a4a" points="324.5,-263.62 321,-253.62 317.5,-263.62 324.5,-263.62"/>
</a>
</g>
</g>
<!-- GenHealth&#45;&gt;PhysicalActivity -->
<g id="edge38" class="edge">
<title>GenHealth-&gt;PhysicalActivity</title>
<g id="a_edge38"><a xlink:title="13 → 12">
<path fill="none" stroke="#4a4a4a" d="M354.43,-292C381.99,-281.28 421.45,-265.94 452.48,-253.87"/>
<polygon fill="#4a4a4a" stroke="#4a4a4a" points="453.61,-257.19 461.66,-250.3 451.07,-250.66 453.61,-257.19"/>
</a>
</g>
</g>
<!-- GenHealth&#45;&gt;PhysicalHealth -->
<g id="edge8" class="edge">
<title>GenHealth-&gt;PhysicalHealth</title>
<g id="a_edge8"><a xlink:title="13 → 5">
<path fill="none" stroke="#4a4a4a" d="M296.26,-289.81C280.46,-280.11 259.73,-267.38 242.22,-256.63"/>
<polygon fill="#4a4a4a" stroke="#4a4a4a" points="244.52,-253.93 234.16,-251.68 240.86,-259.9 244.52,-253.93"/>
</a>
</g>
</g>
<!-- GenHealth&#45;&gt;DiffWalking -->
<g id="edge26" class="edge">
<title>GenHealth-&gt;DiffWalking</title>
<g id="a_edge26"><a xlink:title="13 → 7">
<path fill="none" stroke="#4a4a4a" d="M358.57,-293.48C365.96,-291.46 373.69,-289.53 381,-288 493.24,-264.57 625.95,-249.05 703.75,-241.16"/>
<polygon fill="#4a4a4a" stroke="#4a4a4a" points="703.72,-244.68 713.32,-240.2 703.02,-237.71 703.72,-244.68"/>
</a>
</g>
</g>
<!-- AgeCategory&#45;&gt;SkinCancer -->
<g id="edge6" class="edge">
<title>AgeCategory-&gt;SkinCancer</title>
<g id="a_edge6"><a xlink:title="9 → 17">
<path fill="none" stroke="#4a4a4a" d="M322.47,-509.6C370.51,-497.28 447.01,-477.66 498.11,-464.56"/>
<polygon fill="#4a4a4a" stroke="#4a4a4a" points="498.95,-467.96 507.77,-462.08 497.22,-461.18 498.95,-467.96"/>
</a>
</g>
</g>
<!-- AgeCategory&#45;&gt;Race -->
<g id="edge22" class="edge">
<title>AgeCategory-&gt;Race</title>
<g id="a_edge22"><a xlink:title="9 → 10">
<path fill="none" stroke="#4a4a4a" d="M293.17,-504.41C301.4,-495.41 311.71,-484.13 320.74,-474.26"/>
<polygon fill="#4a4a4a" stroke="#4a4a4a" points="323.06,-476.9 327.23,-467.16 317.9,-472.17 323.06,-476.9"/>
</a>
</g>
</g>
<!-- AgeCategory&#45;&gt;Smoking -->
<g id="edge1" class="edge">
<title>AgeCategory-&gt;Smoking</title>
<g id="a_edge1"><a xlink:title="9 → 2">
<path fill="none" stroke="#4a4a4a" d="M265.17,-504.05C258.89,-495.77 251.21,-485.62 244.25,-476.42"/>
<polygon fill="#4a4a4a" stroke="#4a4a4a" points="247.09,-474.37 238.26,-468.51 241.51,-478.6 247.09,-474.37"/>
</a>
</g>
</g>
<!-- ComorbidityCount&#45;&gt;KidneyDisease -->
<g id="edge16" class="edge">
<title>ComorbidityCount-&gt;KidneyDisease</title>
<g id="a_edge16"><a xlink:title="18 → 16">
<path fill="none" stroke="#4a4a4a" d="M549.94,-360.76C533.28,-351.13 511.98,-338.81 493.97,-328.39"/>
<polygon fill="#4a4a4a" stroke="#4a4a4a" points="495.8,-325.4 485.39,-323.42 492.29,-331.46 495.8,-325.4"/>
</a>
</g>
</g>
<!-- ComorbidityCount&#45;&gt;GenHealth -->
<g id="edge17" class="edge">
<title>ComorbidityCount-&gt;GenHealth</title>
<g id="a_edge17"><a xlink:title="18 → 13">
<path fill="none" stroke="#4a4a4a" d="M527.34,-363.57C487.52,-352.96 430.67,-337.72 381,-324 377.66,-323.08 374.23,-322.12 370.76,-321.15"/>
<polygon fill="#4a4a4a" stroke="#4a4a4a" points="371.74,-317.79 361.17,-318.46 369.85,-324.53 371.74,-317.79"/>
</a>
</g>
</g>
<!-- ComorbidityCount&#45;&gt;Stroke -->
<g id="edge13" class="edge">
<title>ComorbidityCount-&gt;Stroke</title>
<g id="a_edge13"><a xlink:title="18 → 4">
<path fill="none" stroke="#4a4a4a" d="M577.75,-359.7C577.65,-352.41 577.52,-343.73 577.41,-335.54"/>
<polygon fill="#4a4a4a" stroke="#4a4a4a" points="580.91,-335.57 577.27,-325.62 573.91,-335.67 580.91,-335.57"/>
</a>
</g>
</g>
<!-- ComorbidityCount&#45;&gt;Diabetic -->
<g id="edge40" class="edge">
<title>ComorbidityCount-&gt;Diabetic</title>
<g id="a_edge40"><a xlink:title="18 → 11">
<path fill="none" stroke="#4a4a4a" d="M600.28,-360.41C612.98,-350.95 629.05,-338.98 642.76,-328.77"/>
<polygon fill="#4a4a4a" stroke="#4a4a4a" points="644.66,-331.72 650.59,-322.94 640.48,-326.11 644.66,-331.72"/>
</a>
</g>
</g>
<!-- ComorbidityCount&#45;&gt;Asthma -->
<g id="edge31" class="edge">
<title>ComorbidityCount-&gt;Asthma</title>
<g id="a_edge31"><a xlink:title="18 → 15">
<path fill="none" stroke="#4a4a4a" d="M619.14,-362.15C652.02,-350.29 697.88,-333.74 730.78,-321.87"/>
<polygon fill="#4a4a4a" stroke="#4a4a4a" points="731.76,-325.24 739.98,-318.55 729.38,-318.66 731.76,-325.24"/>
</a>
</g>
</g>
<!-- RiskBehavior&#45;&gt;AlcoholDrinking -->
<g id="edge30" class="edge">
<title>RiskBehavior-&gt;AlcoholDrinking</title>
<g id="a_edge30"><a xlink:title="20 → 3">
<path fill="none" stroke="#4a4a4a" d="M197.57,-359.7C194.77,-352.15 191.42,-343.12 188.28,-334.68"/>
<polygon fill="#4a4a4a" stroke="#4a4a4a" points="191.64,-333.68 184.88,-325.52 185.08,-336.12 191.64,-333.68"/>
</a>
</g>
</g>
<!-- PhysicalHealth&#45;&gt;UnhealthyDays -->
<g id="edge5" class="edge">
<title>PhysicalHealth-&gt;UnhealthyDays</title>
<g id="a_edge5"><a xlink:title="5 → 19">
<path fill="none" stroke="#4a4a4a" d="M255.48,-221.24C264.59,-219.29 274.06,-217.44 283,-216 443.75,-190.11 634,-174.82 737.84,-167.75"/>
<polygon fill="#4a4a4a" stroke="#4a4a4a" points="737.9,-171.26 747.64,-167.09 737.43,-164.27 737.9,-171.26"/>
</a>
</g>
</g>
<!-- UnhealthyDays&#45;&gt;SleepTime -->
<g id="edge21" class="edge">
<title>UnhealthyDays-&gt;SleepTime</title>
<g id="a_edge21"><a xlink:title="19 → 14">
<path fill="none" stroke="#4a4a4a" d="M804.35,-144.05C799.32,-136.06 793.21,-126.33 787.59,-117.4"/>
<polygon fill="#4a4a4a" stroke="#4a4a4a" points="790.64,-115.67 782.36,-109.07 784.72,-119.4 790.64,-115.67"/>
</a>
</g>
</g>
<!-- UnhealthyDays&#45;&gt;MentalHealth -->
<g id="edge2" class="edge">
<title>UnhealthyDays-&gt;MentalHealth</title>
<g id="a_edge2"><a xlink:title="19 → 6">
<path fill="none" stroke="#4a4a4a" d="M835.62,-144.41C846.67,-135.52 860.48,-124.41 872.63,-114.63"/>
<polygon fill="#4a4a4a" stroke="#4a4a4a" points="874.75,-117.41 880.35,-108.42 870.37,-111.96 874.75,-117.41"/>
</a>
</g>
</g>
<!-- Smoking&#45;&gt;RiskBehavior -->
<g id="edge15" class="edge">
<title>Smoking-&gt;RiskBehavior</title>
<g id="a_edge15"><a xlink:title="2 → 20">
<path fill="none" stroke="#4a4a4a" d="M219.81,-431.7C217.57,-424.24 214.9,-415.32 212.39,-406.97"/>
<polygon fill="#4a4a4a" stroke="#4a4a4a" points="215.79,-406.13 209.57,-397.55 209.09,-408.14 215.79,-406.13"/>
</a>
</g>
</g>
</g>
</svg>